# xmcd
#
# Track frame offsets:
#	183
#	27545
#	36920
#	51120
#	71595
#	96208
#	116808
#	128558
#	148533
#	173508
#	193958
#	228408
#	247320
#
# Disc length: 3518
#
# Revision: 3
# Processed by: cddbd v1.5.1PL0 Copyright (c) Steve Scherf et al.
# Submitted via: Feurio! 1.62 - http://www.feurio.com
# Normalized: r2:DSETVAR1
#
DISCID=bf0dbc0d
DTITLE=Various Artist - Varie
DYEAR=1900
DGENRE=misc
TTITLE0=Antonello Venditti - Compagno di scuola
TTITLE1=Lucio Dalla - Fumetto
TTITLE2=Francesco de Gregori - Pezzi di vetro
TTITLE3=Riccardo Cocciante - Margerita
TTITLE4=Claudio Baglioni - La vita   adesso
TTITLE5=Renato Zero - Il carrozzone
TTITLE6=Edoardo Bennato - 1941
TTITLE7=Lucio Dalla - L'anno che verr
TTITLE8=CLaudio Baglioni - E tu come stai?
TTITLE9=Paolo Conte - Onda su onda
TTITLE10=Claudio Lolli - Canzone scritta sul muro
TTITLE11=Riccardo Cocciante - Cervo a primavera
TTITLE12=Francesco de Gregori - Rimmel
EXTD=
EXTT0=
EXTT1=
EXTT2=
EXTT3=
EXTT4=
EXTT5=
EXTT6=
EXTT7=
EXTT8=
EXTT9=
EXTT10=
EXTT11=
EXTT12=
PLAYORDER=
